# xmcd
#
# Track frame offsets: 
#        150
#        28917
#        57950
#        94835
#        142710
#        182120
#        219527
#
# Disc length: 3542 seconds
#
# Revision: 2
# Processed by: cddbd v1.5.2PL0 Copyright (c) Steve Scherf et al.
# Submitted via: ExactAudioCopyFreeDBPlugin 1.0
#
DISCID=5f0dd407
DTITLE=Joe Chambers - Phantom Of The City
DYEAR=1991
DGENRE=Contemporary Jazz
TTITLE0=Phantom of the City (George Cables)
TTITLE1=Fun (Miles Davies)
TTITLE2=For Miles (Joe Chambers)
TTITLE3=Nuevo Mundo (Joe Chambers)
TTITLE4=El Gaucho (Wayne Shorter)
TTITLE5=You've Changed (C. Fischer and B. Carey)
TTITLE6=In and Out (Joe Henderson)
EXTD=YEAR: 1991
EXTT0=
EXTT1=
EXTT2=
EXTT3=
EXTT4=
EXTT5=
EXTT6=
PLAYORDER=
